<svg width="404" height="275" viewBox="0 0 404 275" fill="none" xmlns="http://www.w3.org/2000/svg">
<path d="M101.192 246.343H86.2169C85.6902 220.998 84.2304 197.166 81.8443 174.842H81.7124L58.9111 246.343H47.5088L24.8457 174.842H24.7122C23.0306 196.281 21.9726 220.114 21.5315 246.343H7.87695C8.75933 214.444 10.9676 184.541 14.5017 156.628H33.0632L54.6688 222.548H54.8014L76.5396 156.628H94.2997C98.1886 189.319 100.485 219.231 101.191 246.343" fill="#00758F"/>
<path d="M166.154 180.153C160.055 213.33 152.011 237.44 142.027 252.481C134.247 264.07 125.725 269.864 116.445 269.864C113.971 269.864 110.92 269.117 107.3 267.633V259.635C109.069 259.895 111.144 260.033 113.53 260.033C117.86 260.033 121.349 258.833 124.003 256.439C127.182 253.521 128.773 250.241 128.773 246.607C128.773 244.125 127.532 239.031 125.062 231.326L108.626 180.153H123.338L135.134 218.425C137.784 227.115 138.89 233.181 138.447 236.639C144.899 219.361 149.406 200.531 151.97 180.153H166.153" fill="#00758F"/>
<path d="M231.755 221.476C231.755 229.084 228.967 235.33 223.409 240.217C217.847 245.083 210.374 247.522 201.017 247.522C192.265 247.522 183.783 244.715 175.566 239.145L179.41 231.439C186.481 234.983 192.879 236.752 198.624 236.752C204.013 236.752 208.231 235.55 211.282 233.174C214.326 230.781 216.151 227.444 216.151 223.211C216.151 217.884 212.446 213.33 205.648 209.511C199.372 206.057 186.829 198.848 186.829 198.848C180.034 193.877 176.627 188.544 176.627 179.757C176.627 172.489 179.168 166.615 184.242 162.146C189.329 157.667 195.891 155.428 203.927 155.428C212.234 155.428 219.787 157.651 226.59 162.08L223.134 169.78C217.313 167.305 211.573 166.063 205.914 166.063C201.322 166.063 197.783 167.168 195.316 169.392C192.835 171.597 191.301 174.434 191.301 177.892C191.301 183.205 195.087 187.814 202.077 191.708C208.432 195.163 221.282 202.512 221.282 202.512C228.271 207.473 231.755 212.763 231.755 221.476Z" fill="#F29111"/>
<path fill-rule="evenodd" clip-rule="evenodd" d="M258.526 228.396C254.902 222.548 253.087 213.163 253.087 200.223C253.087 177.633 259.938 166.33 273.633 166.33C280.794 166.33 286.049 169.034 289.41 174.435C293.029 180.285 294.845 189.589 294.845 202.348C294.845 225.119 287.994 236.51 274.298 236.51C267.14 236.51 261.883 233.809 258.526 228.397M311.811 248.507L295.365 240.375C296.829 239.171 298.22 237.872 299.479 236.368C306.461 228.137 309.956 215.955 309.956 199.826C309.956 170.145 298.335 155.297 275.095 155.297C263.696 155.297 254.812 159.061 248.451 166.599C241.465 174.84 237.978 186.977 237.978 203.014C237.978 218.784 241.068 230.353 247.254 237.702C252.89 244.344 261.414 247.67 272.825 247.67C277.082 247.67 280.988 247.144 284.538 246.093L305.956 258.59L311.795 248.506" fill="#F29111"/>
<path d="M365.498 246.343H322.952V156.628H337.269V235.307H365.498V246.343" fill="#F29111"/>
<path d="M375.708 246.334H378.08V237.206H381.184V235.342H372.483V237.206H375.708V246.334ZM393.759 246.334H395.995V235.342H392.632L389.895 242.834L386.915 235.342H383.674V246.334H385.79V237.968H385.91L389.031 246.334H390.643L393.759 237.968V246.334Z" fill="#F29111"/>
<path fill-rule="evenodd" clip-rule="evenodd" d="M383.469 126.578C374.816 126.361 368.115 127.226 362.495 129.613C360.873 130.263 358.282 130.263 358.06 132.323C358.931 133.188 359.035 134.596 359.797 135.794C361.091 137.962 363.357 140.884 365.415 142.405C367.685 144.141 369.956 145.869 372.337 147.386C376.551 149.999 381.309 151.51 385.411 154.112C387.798 155.628 390.168 157.577 392.554 159.208C393.739 160.074 394.489 161.486 396.009 162.022V161.694C395.247 160.721 395.035 159.312 394.282 158.222C393.203 157.146 392.119 156.164 391.036 155.085C387.899 150.858 384.002 147.176 379.796 144.141C376.334 141.75 368.762 138.497 367.362 134.498C367.362 134.498 367.249 134.384 367.143 134.277C369.522 134.057 372.337 133.188 374.606 132.531C378.276 131.558 381.628 131.778 385.411 130.805C387.144 130.368 388.874 129.823 390.611 129.29V128.307C388.655 126.361 387.255 123.755 385.201 121.914C379.692 117.146 373.631 112.489 367.362 108.58C364.006 106.412 359.682 105.009 356.113 103.162C354.822 102.51 352.662 102.189 351.902 101.099C349.955 98.7154 348.869 95.576 347.467 92.7532C344.335 86.7979 341.302 80.1879 338.604 73.8905C336.659 69.666 335.469 65.4416 333.09 61.5367C321.949 43.1055 309.846 31.9468 291.251 20.9964C287.25 18.7174 282.494 17.7424 277.417 16.5496C274.71 16.4361 272.009 16.2254 269.307 16.1188C267.574 15.3569 265.842 13.2956 264.331 12.3205C258.166 8.42027 242.281 -0.0333317 237.737 11.1301C234.818 18.1801 242.062 25.1144 244.549 28.6927C246.386 31.1825 248.767 34.0057 250.058 36.8198C250.816 38.6633 251.033 40.6181 251.793 42.5659C253.521 47.3346 255.14 52.6477 257.415 57.0945C258.6 59.3712 259.896 61.759 261.409 63.8087C262.282 65.0084 263.791 65.5435 264.116 67.5005C262.608 69.666 262.49 72.9178 261.626 75.6299C257.737 87.8795 259.247 103.054 264.763 112.05C266.489 114.759 270.603 120.723 276.116 118.441C280.981 116.494 279.9 110.315 281.304 104.898C281.628 103.588 281.411 102.729 282.057 101.863V102.082C283.57 105.113 285.088 108.032 286.492 111.077C289.849 116.383 295.681 121.913 300.55 125.595C303.138 127.554 305.193 130.909 308.436 132.105V131.777H308.224C307.573 130.804 306.602 130.368 305.736 129.612C303.791 127.66 301.634 125.274 300.114 123.107C295.575 117.039 291.57 110.315 288.01 103.378C286.275 100.01 284.765 96.3278 283.358 92.9695C282.711 91.6748 282.711 89.718 281.628 89.0693C280.002 91.4514 277.629 93.514 276.442 96.4318C274.386 101.098 274.171 106.842 273.409 112.807C272.98 112.92 273.197 112.807 272.98 113.022C269.524 112.156 268.334 108.579 267.034 105.554C263.791 97.8476 263.246 85.4907 266.061 76.601C266.814 74.329 270.067 67.1747 268.764 65.0069C268.11 62.9387 265.951 61.7574 264.763 60.1246C263.361 58.0656 261.839 55.4693 260.876 53.188C258.279 47.12 256.974 40.3964 254.172 34.3284C252.874 31.5051 250.599 28.5776 248.767 25.9813C246.709 23.0538 244.441 20.9949 242.817 17.5301C242.281 16.335 241.523 14.3825 242.385 13.0855C242.597 12.217 243.036 11.8904 243.903 11.6727C245.3 10.48 249.305 11.9947 250.707 12.6455C254.711 14.2667 258.062 15.793 261.409 18.065C262.925 19.1512 264.546 21.2102 266.489 21.7568H268.764C272.222 22.5095 276.116 21.9676 279.362 22.9473C285.088 24.7885 290.276 27.4983 294.928 30.4258C309.086 39.4237 320.762 52.2176 328.65 67.4989C329.951 69.9887 330.496 72.2677 331.683 74.864C333.954 80.1863 336.767 85.6058 339.033 90.8038C341.302 95.8991 343.468 101.098 346.716 105.332C348.333 107.604 354.821 108.797 357.741 109.99C359.899 110.962 363.255 111.831 365.202 113.022C368.877 115.294 372.545 117.9 376.01 120.397C377.736 121.698 383.143 124.405 383.469 126.576" fill="#00758F"/>
<path fill-rule="evenodd" clip-rule="evenodd" d="M273.194 32.3673C271.36 32.3673 270.067 32.5896 268.762 32.9116V33.1293H268.972C269.845 34.8594 271.36 36.0614 272.432 37.5761C273.303 39.3109 274.061 41.0386 274.925 42.7756C275.031 42.6691 275.135 42.5556 275.135 42.5556C276.659 41.4763 277.415 39.7439 277.415 37.1383C276.761 36.374 276.659 35.6213 276.114 34.8593C275.467 33.7777 274.061 33.2358 273.194 32.3673Z" fill="#00758F"/>
</svg>
