<svg width="250" height="154" viewBox="0 0 250 154" fill="none" xmlns="http://www.w3.org/2000/svg">
<g clip-path="url(#clip0_1109_211)">
<path d="M123.589 152.858C122.743 152.858 121.953 152.632 121.219 152.237L113.715 147.78C112.586 147.159 113.151 146.933 113.489 146.82C115.013 146.313 115.295 146.199 116.875 145.297C117.044 145.184 117.27 145.241 117.439 145.353L123.195 148.795C123.42 148.908 123.702 148.908 123.871 148.795L146.385 135.761C146.611 135.648 146.724 135.422 146.724 135.14V109.128C146.724 108.845 146.611 108.62 146.385 108.507L123.871 95.5294C123.646 95.4161 123.364 95.4161 123.195 95.5294L100.681 108.507C100.455 108.62 100.342 108.902 100.342 109.128V135.14C100.342 135.366 100.455 135.648 100.681 135.761L106.831 139.316C110.16 141.008 112.248 139.033 112.248 137.059V111.385C112.248 111.046 112.53 110.708 112.925 110.708H115.803C116.141 110.708 116.48 110.99 116.48 111.385V137.059C116.48 141.516 114.053 144.112 109.821 144.112C108.524 144.112 107.508 144.112 104.63 142.701L98.7057 139.316C97.2387 138.469 96.3359 136.889 96.3359 135.196V109.184C96.3359 107.492 97.2387 105.911 98.7057 105.065L121.219 92.0308C122.63 91.2409 124.549 91.2409 125.959 92.0308L148.473 105.065C149.94 105.911 150.843 107.492 150.843 109.184V135.196C150.843 136.889 149.94 138.469 148.473 139.316L125.959 152.35C125.226 152.689 124.379 152.858 123.589 152.858ZM130.53 134.971C120.655 134.971 118.624 130.457 118.624 126.62C118.624 126.281 118.906 125.943 119.301 125.943H122.235C122.574 125.943 122.856 126.168 122.856 126.507C123.307 129.498 124.605 130.965 130.586 130.965C135.326 130.965 137.358 129.892 137.358 127.353C137.358 125.886 136.793 124.815 129.401 124.081C123.251 123.46 119.414 122.106 119.414 117.197C119.414 112.626 123.251 109.918 129.684 109.918C136.906 109.918 140.461 112.401 140.913 117.817C140.913 117.987 140.856 118.156 140.743 118.325C140.63 118.438 140.461 118.551 140.292 118.551H137.357C137.075 118.551 136.793 118.325 136.737 118.043C136.06 114.94 134.31 113.924 129.684 113.924C124.492 113.924 123.871 115.73 123.871 117.084C123.871 118.72 124.605 119.228 131.602 120.131C138.542 121.034 141.815 122.331 141.815 127.184C141.759 132.15 137.696 134.971 130.53 134.971Z" fill="#539E43"/>
<path d="M53.7341 51.1221C53.7341 50.1066 53.1697 49.1468 52.267 48.6391L28.3425 34.8714C27.947 34.6453 27.4959 34.5325 27.0448 34.4759H26.8187C26.3676 34.4759 25.916 34.6453 25.5211 34.8714L1.59649 48.6391C0.693285 49.1468 0.129395 50.1061 0.129395 51.1221L0.186028 88.1372C0.186028 88.645 0.468217 89.1527 0.919329 89.3788C1.37093 89.661 1.93482 89.661 2.33027 89.3788L16.5496 81.2534C17.4523 80.7456 18.0167 79.7863 18.0167 78.7708V61.4479C18.0167 60.4324 18.5806 59.4731 19.4838 58.9653L25.5211 55.4668C25.9727 55.1846 26.4804 55.0713 26.9881 55.0713C27.4959 55.0713 28.0036 55.1846 28.3991 55.4668L34.4364 58.9653C35.3396 59.4731 35.9035 60.4319 35.9035 61.4479V78.7708C35.9035 79.7863 36.4678 80.7456 37.3706 81.2534L51.5899 89.3788C52.0415 89.661 52.6054 89.661 53.057 89.3788C53.5086 89.1527 53.7907 88.645 53.7907 88.1372L53.7341 51.1221ZM168.73 0.169411C168.279 -0.0566331 167.715 -0.0566331 167.319 0.169411C166.868 0.4516 166.586 0.902712 166.586 1.41046V38.0877C166.586 38.4261 166.417 38.7644 166.078 38.9904C165.74 39.1594 165.401 39.1594 165.063 38.9904L159.081 35.5485C158.643 35.2988 158.147 35.1675 157.642 35.1675C157.138 35.1675 156.642 35.2988 156.203 35.5485L132.279 49.3728C131.376 49.8806 130.812 50.8399 130.812 51.8554V79.4475C130.812 80.463 131.376 81.4228 132.279 81.9305L156.203 95.7549C156.642 96.0046 157.138 96.1358 157.642 96.1358C158.147 96.1358 158.643 96.0046 159.081 95.7549L183.006 81.9305C183.909 81.4228 184.473 80.4634 184.473 79.4475V10.6646C184.473 9.59248 183.909 8.63362 183.006 8.12539L168.73 0.169411ZM166.53 70.3632C166.53 70.6454 166.417 70.871 166.191 70.9837L158.009 75.7234C157.895 75.7791 157.77 75.8081 157.642 75.8081C157.515 75.8081 157.39 75.7791 157.276 75.7234L149.094 70.9837C148.868 70.871 148.755 70.5888 148.755 70.3632V60.8835C148.755 60.6013 148.868 60.3758 149.094 60.263L157.276 55.5229C157.39 55.4672 157.515 55.4382 157.642 55.4382C157.77 55.4382 157.895 55.4672 158.009 55.5229L166.191 60.263C166.417 60.3753 166.53 60.658 166.53 60.8835V70.3632ZM248.347 60.658C249.25 60.1502 249.758 59.1909 249.758 58.1749V51.4605C249.758 50.445 249.194 49.4856 248.347 48.9779L224.592 35.2102C224.153 34.9606 223.658 34.8294 223.153 34.8294C222.649 34.8294 222.153 34.9606 221.714 35.2102L197.79 49.034C196.887 49.5418 196.323 50.5011 196.323 51.5171V79.1091C196.323 80.1246 196.887 81.084 197.79 81.5917L221.545 95.1339C222.448 95.6416 223.52 95.6416 224.366 95.1339L238.755 87.1222C239.206 86.8962 239.488 86.3884 239.488 85.8807C239.488 85.373 239.206 84.8652 238.755 84.6392L214.717 70.8148C214.266 70.5331 213.984 70.0815 213.984 69.5738V60.9407C213.984 60.4329 214.266 59.9252 214.717 59.6991L222.222 55.4106C222.442 55.2724 222.696 55.199 222.956 55.199C223.215 55.199 223.469 55.2724 223.689 55.4106L231.194 59.6991C231.645 59.9813 231.927 60.4324 231.927 60.9407V67.7117C231.927 68.2195 232.21 68.7272 232.661 68.9528C233.112 69.235 233.676 69.235 234.128 68.9528L248.347 60.658Z" fill="#333333"/>
<path d="M222.786 59.3603C222.87 59.3051 222.968 59.2758 223.068 59.2758C223.169 59.2758 223.267 59.3051 223.35 59.3603L227.921 62.0122C228.09 62.1245 228.203 62.2939 228.203 62.52V67.824C228.203 68.0495 228.09 68.2189 227.921 68.3317L223.35 70.9837C223.267 71.0388 223.169 71.0682 223.068 71.0682C222.968 71.0682 222.87 71.0388 222.786 70.9837L218.216 68.3317C218.046 68.2189 217.934 68.0495 217.934 67.824V62.52C217.934 62.2939 218.046 62.1245 218.216 62.0122L222.786 59.3603Z" fill="#539E43"/>
<path d="M93.7399 35.323C93.3015 35.0734 92.8057 34.9421 92.3012 34.9421C91.7967 34.9421 91.3008 35.0734 90.8624 35.323L67.1072 49.0335C66.204 49.5413 65.6963 50.5006 65.6963 51.5161V78.9959C65.6963 80.0114 66.2607 80.9707 67.1072 81.4785L90.8624 95.19C91.3008 95.4396 91.7967 95.5708 92.3012 95.5708C92.8057 95.5708 93.3015 95.4396 93.7399 95.19L117.496 81.4785C118.398 80.9707 118.907 80.0114 118.907 78.9959V51.5166C118.907 50.5011 118.342 49.5418 117.496 49.034L93.7399 35.323Z" fill="url(#paint0_linear_1109_211)"/>
<mask id="mask0_1109_211" style="mask-type:luminance" maskUnits="userSpaceOnUse" x="65" y="34" width="54" height="62">
<path d="M93.7399 35.323C93.3015 35.0734 92.8057 34.9421 92.3012 34.9421C91.7967 34.9421 91.3008 35.0734 90.8624 35.323L67.1072 49.0335C66.204 49.5413 65.6963 50.5006 65.6963 51.5161V78.9959C65.6963 80.0114 66.2607 80.9707 67.1072 81.4785L90.8624 95.19C91.3008 95.4396 91.7967 95.5708 92.3012 95.5708C92.8057 95.5708 93.3015 95.4396 93.7399 95.19L117.496 81.4785C118.398 80.9707 118.907 80.0114 118.907 78.9959V51.5166C118.907 50.5011 118.342 49.5418 117.496 49.034L93.7399 35.323Z" fill="white"/>
</mask>
<g mask="url(#mask0_1109_211)">
<path d="M117.552 49.034L93.6839 35.323C93.4493 35.2045 93.2035 35.11 92.9501 35.0408L66.2041 80.8589C66.4257 81.1294 66.6932 81.3586 66.9945 81.5361L90.8625 95.2476C91.5396 95.6426 92.3295 95.7554 93.0628 95.5293L118.173 49.5989C118.003 49.3733 117.777 49.203 117.552 49.034Z" fill="url(#paint1_linear_1109_211)"/>
</g>
<mask id="mask1_1109_211" style="mask-type:luminance" maskUnits="userSpaceOnUse" x="65" y="34" width="54" height="62">
<path d="M93.7399 35.323C93.3015 35.0734 92.8057 34.9421 92.3012 34.9421C91.7967 34.9421 91.3008 35.0734 90.8624 35.323L67.1072 49.0335C66.204 49.5413 65.6963 50.5006 65.6963 51.5161V78.9959C65.6963 80.0114 66.2607 80.9707 67.1072 81.4785L90.8624 95.19C91.3008 95.4396 91.7967 95.5708 92.3012 95.5708C92.8057 95.5708 93.3015 95.4396 93.7399 95.19L117.496 81.4785C118.398 80.9707 118.907 80.0114 118.907 78.9959V51.5166C118.907 50.5011 118.342 49.5418 117.496 49.034L93.7399 35.323Z" fill="white"/>
</mask>
<g mask="url(#mask1_1109_211)">
<path fill-rule="evenodd" clip-rule="evenodd" d="M117.608 81.4789C118.285 81.0839 118.793 80.4068 119.019 79.6735L92.8367 34.9841C92.1595 34.8713 91.4257 34.9275 90.8057 35.3224L67.1067 48.9778L92.6673 95.5854C93.039 95.5246 93.4001 95.4106 93.7394 95.2471L117.608 81.4794L117.608 81.4789Z" fill="url(#paint2_linear_1109_211)"/>
<path fill-rule="evenodd" clip-rule="evenodd" d="M117.608 81.4789L93.7965 95.1904C93.4603 95.3619 93.098 95.4762 92.7244 95.5288L93.176 96.3753L119.583 81.0844V80.7456L118.906 79.6168C118.793 80.4068 118.285 81.0839 117.608 81.4789Z" fill="url(#paint3_linear_1109_211)"/>
<path fill-rule="evenodd" clip-rule="evenodd" d="M117.608 81.4789L93.7965 95.1904C93.4603 95.3619 93.098 95.4762 92.7244 95.5288L93.176 96.3753L119.583 81.0844V80.7456L118.906 79.6168C118.793 80.4068 118.285 81.0839 117.608 81.4789Z" fill="url(#paint4_linear_1109_211)"/>
</g>
</g>
<defs>
<linearGradient id="paint0_linear_1109_211" x1="3694" y1="1095.16" x2="1090.2" y2="5186.49" gradientUnits="userSpaceOnUse">
<stop stop-color="#41873F"/>
<stop offset="0.3288" stop-color="#418B3D"/>
<stop offset="0.6352" stop-color="#419637"/>
<stop offset="0.9319" stop-color="#3FA92D"/>
<stop offset="1" stop-color="#3FAE2A"/>
</linearGradient>
<linearGradient id="paint1_linear_1109_211" x1="2315.25" y1="3378.5" x2="8836.33" y2="-164.434" gradientUnits="userSpaceOnUse">
<stop offset="0.1376" stop-color="#41873F"/>
<stop offset="0.4032" stop-color="#54A044"/>
<stop offset="0.7136" stop-color="#66B848"/>
<stop offset="0.9081" stop-color="#6CC04A"/>
</linearGradient>
<linearGradient id="paint2_linear_1109_211" x1="-160.738" y1="3067.39" x2="5336.18" y2="3067.39" gradientUnits="userSpaceOnUse">
<stop offset="0.09192" stop-color="#6CC04A"/>
<stop offset="0.2864" stop-color="#66B848"/>
<stop offset="0.5968" stop-color="#54A044"/>
<stop offset="0.8624" stop-color="#41873F"/>
</linearGradient>
<linearGradient id="paint3_linear_1109_211" x1="-2696.85" y1="922.151" x2="2800.01" y2="922.151" gradientUnits="userSpaceOnUse">
<stop offset="0.09192" stop-color="#6CC04A"/>
<stop offset="0.2864" stop-color="#66B848"/>
<stop offset="0.5968" stop-color="#54A044"/>
<stop offset="0.8624" stop-color="#41873F"/>
</linearGradient>
<linearGradient id="paint4_linear_1109_211" x1="3600.83" y1="-3457.59" x2="2208.26" y2="3839.43" gradientUnits="userSpaceOnUse">
<stop stop-color="#41873F"/>
<stop offset="0.3288" stop-color="#418B3D"/>
<stop offset="0.6352" stop-color="#419637"/>
<stop offset="0.9319" stop-color="#3FA92D"/>
<stop offset="1" stop-color="#3FAE2A"/>
</linearGradient>
<clipPath id="clip0_1109_211">
<rect width="250" height="153.3" fill="white"/>
</clipPath>
</defs>
</svg>
